# xmcd
#
# Track frame offsets:
#	150
#	17550
#	50165
#	73895
#	96342
#	117722
#	140262
#	163097
#	191272
#	218622
#	241512
#	270702
#
# Disc length: 3851 seconds
#
# Revision: 1
# Processed by: cddbd v1.5.2PL0 Copyright (c) Steve Scherf et al.
# Submitted via: audiograbber 1.83.01
#
DISCID=ac0f090c
DTITLE=O'Neal, Alexander - All true man
DYEAR=1991
DGENRE=Soul
TTITLE0=Time is running out
TTITLE1=The yoke (G.U.O.T.R.)
TTITLE2=Every time I get up
TTITLE3=Somebody (changed your mind)
TTITLE4=Midnight run
TTITLE5=Used
TTITLE6=All true man
TTITLE7=Sentimental
TTITLE8=What is this thing called love
TTITLE9=The morning after
TTITLE10=Hang on
TTITLE11=Shame
EXTD=
EXTT0=
EXTT1=
EXTT2=
EXTT3=
EXTT4=
EXTT5=
EXTT6=
EXTT7=
EXTT8=
EXTT9=
EXTT10=
EXTT11=
PLAYORDER=
